<svg xmlns="http://www.w3.org/2000/svg" viewBox="0 0 500 500"><g id="freepik--background-complete--inject-44"><rect x="58.29" y="323.87" width="76.42" height="100.8" style="fill:#e0e0e0"></rect><rect x="98.88" y="323.87" width="35.83" height="100.8" style="fill:#f0f0f0"></rect><rect x="74.31" y="337.52" width="6.87" height="16.69" style="fill:#f5f5f5"></rect><rect x="74.31" y="402.85" width="6.87" height="16.69" style="fill:#f5f5f5"></rect><path d="M98.88,360.76c0,.15-9.09.26-20.29.26s-20.3-.11-20.3-.26,9.08-.26,20.3-.26S98.88,360.62,98.88,360.76Z" style="fill:#fff"></path><rect x="74.31" y="370.43" width="6.87" height="16.69" style="fill:#f5f5f5"></rect><path d="M98.88,393.68c0,.14-9.09.26-20.29.26s-20.3-.12-20.3-.26,9.08-.26,20.3-.26S98.88,393.54,98.88,393.68Z" style="fill:#fff"></path><rect x="106.49" y="337.52" width="6.87" height="16.69" style="fill:#e0e0e0"></rect><rect x="121.39" y="337.52" width="6.87" height="16.69" style="fill:#e0e0e0"></rect><rect x="106.49" y="369.2" width="6.87" height="16.69" style="fill:#e0e0e0"></rect><rect x="121.39" y="369.2" width="6.87" height="16.69" style="fill:#e0e0e0"></rect><rect x="106.49" y="400.87" width="6.87" height="16.69" style="fill:#e0e0e0"></rect><rect x="121.39" y="400.87" width="6.87" height="16.69" style="fill:#e0e0e0"></rect><rect x="52.55" y="320.36" width="87.91" height="3.63" style="fill:#e0e0e0"></rect><path d="M135.24,324.34c0,.14-17.08.26-38.14.26S59,324.48,59,324.34s17.08-.26,38.15-.26S135.24,324.2,135.24,324.34Z" style="fill:#fff"></path><rect x="375.86" y="351.57" width="54.97" height="72.5" style="fill:#e0e0e0"></rect><rect x="405.05" y="351.57" width="25.77" height="72.5" style="fill:#f0f0f0"></rect><rect x="387.38" y="361.38" width="4.94" height="12.01" style="fill:#f5f5f5"></rect><rect x="387.38" y="408.38" width="4.94" height="12.01" style="fill:#f5f5f5"></rect><path d="M405.05,378.1c0,.11-6.53.19-14.59.19s-14.6-.08-14.6-.19,6.53-.18,14.6-.18S405.05,378,405.05,378.1Z" style="fill:#fff"></path><rect x="387.38" y="385.06" width="4.94" height="12.01" style="fill:#f5f5f5"></rect><path d="M405.05,401.78c0,.1-6.53.19-14.59.19s-14.6-.09-14.6-.19,6.53-.19,14.6-.19S405.05,401.67,405.05,401.78Z" style="fill:#fff"></path><rect x="410.52" y="361.38" width="4.94" height="12.01" style="fill:#e0e0e0"></rect><rect x="421.25" y="361.38" width="4.94" height="12.01" style="fill:#e0e0e0"></rect><rect x="410.52" y="384.17" width="4.94" height="12.01" style="fill:#e0e0e0"></rect><rect x="421.25" y="384.17" width="4.94" height="12.01" style="fill:#e0e0e0"></rect><rect x="410.52" y="406.95" width="4.94" height="12.01" style="fill:#e0e0e0"></rect><rect x="421.25" y="406.95" width="4.94" height="12.01" style="fill:#e0e0e0"></rect><rect x="371.73" y="349.04" width="63.23" height="2.61" style="fill:#e0e0e0"></rect><path d="M431.21,351.9c0,.11-12.29.19-27.44.19s-27.44-.08-27.44-.19,12.28-.18,27.44-.18S431.21,351.8,431.21,351.9Z" style="fill:#fff"></path><path d="M45.82,153.89h56.29s0-12.89-6.64-12.89a10.23,10.23,0,0,0-10.32,8s0-24.05-12.1-20.52c-11.46,3.34-12.75,18.74-12.75,18.74s-2.06-7.75-8.27-3.38S45.82,153.89,45.82,153.89Z" style="fill:#e0e0e0"></path><path d="M343.17,46.42h36.5s0-8.36-4.31-8.36a6.63,6.63,0,0,0-6.69,5.18s0-15.59-7.85-13.3c-7.42,2.16-8.26,12.14-8.26,12.14s-1.34-5-5.36-2.19S343.17,46.42,343.17,46.42Z" style="fill:#ebebeb"></path><path d="M417.24,207.59h36.5s0-8.35-4.31-8.35a6.63,6.63,0,0,0-6.69,5.18s0-15.59-7.85-13.31c-7.42,2.17-8.26,12.15-8.26,12.15s-1.34-5-5.36-2.19S417.24,207.59,417.24,207.59Z" style="fill:#e0e0e0"></path></g><g id="freepik--Floor--inject-44"><path d="M457.73,424.67c0,.14-93,.26-207.72.26s-207.74-.12-207.74-.26,93-.26,207.74-.26S457.73,424.52,457.73,424.67Z" style="fill:#263238"></path></g><g id="freepik--Map--inject-44"><polygon points="388.5 55 246.15 55 246.15 64.5 379 64.5 379 396.5 246.15 396.5 246.15 406 388.5 406 388.5 55" style="fill:#455a64"></polygon><polygon points="246.15 64.5 246.15 74 246.15 387 246.15 396.5 379 396.5 379 64.5 246.15 64.5" style="fill:#fff"></polygon><polygon points="106 396.5 106 64.5 246.15 64.5 246.15 55 96.5 55 96.5 406 246.15 406 246.15 396.5 106 396.5" style="fill:#263238"></polygon><polygon points="106 64.5 106 396.5 246.15 396.5 246.15 387 246.15 74 246.15 64.5 106 64.5" style="fill:#f5f5f5"></polygon><path d="M347.48,74.69c2.53.84,5,1.77,7.46,2.74V64.5H275.09l1.38,0C297.49,65.25,324.56,67,347.48,74.69Z" style="fill:#f5f5f5"></path><path d="M368.06,64.5V83.17c3.63,1.72,7.26,3.53,10.94,5.37V69.08c-3.41-1.58-6.9-3.12-10.49-4.58Z" style="fill:#f5f5f5"></path><path d="M146.94,352.65a105.53,105.53,0,0,0,20.18-9.56l-43-31c-6.5,3.07-13.31,6.26-18.08,9.65v26.19C116.28,355.48,133.09,357.39,146.94,352.65Z" style="fill:#f5f5f5"></path><path d="M221.15,274.63a62.18,62.18,0,0,1-.2-19l-20.95-5c-10-2.39-20.8,1.68-23.17,8.72-5.81,17.3-21.24,34.24-39.72,46a86,86,0,0,1-8.24,4.47l20.45,14.74,73.13-44.42A48.51,48.51,0,0,1,221.15,274.63Z" style="fill:#f5f5f5"></path><path d="M236.74,303.89a57.37,57.37,0,0,1-12.81-19.41l-70.61,42.9,18.1,13.05c6.84-4.35,13.32-9.06,20.16-13.54A243.89,243.89,0,0,1,236.74,303.89Z" style="fill:#f5f5f5"></path><path d="M308.49,276.58l-81.9-19.65a58.12,58.12,0,0,0,.32,17.23A51.92,51.92,0,0,0,241.85,302a314.49,314.49,0,0,1,65.8-16.19C314.66,284.81,315.27,278.13,308.49,276.58Z" style="fill:#f5f5f5"></path><path d="M142.3,244.78l3.09-18.33.31-1.69c-.49-1-1-1.93-1.45-2.89-4.46,1.19-9.41,1.07-14.12,1.63s-9.74,2.15-11.32,5.23c-1,1.89-.45,4,.09,5.94q1.23,4.56,2.47,9.11c.68,2.54,1.42,5.16,3.52,7.3a11.56,11.56,0,0,0,9.64,3.08,8.93,8.93,0,0,0,6-3.78A14.32,14.32,0,0,0,142.3,244.78Z" style="fill:#f5f5f5"></path><polygon points="317.08 207.48 368.51 222.76 379 215.43 379 194.18 344.64 183.98 317.08 207.48" style="fill:#e6e6e6"></polygon><polygon points="350.65 178.86 379 187.28 379 165.39 367.97 164.09 350.65 178.86" style="fill:#e6e6e6"></polygon><path d="M368.06,83.17V64.5H354.94v80L187.27,111.73l9.09-47.23H183.48l-8.82,45.79L106,107.46v8.73L173,119l-16.72,86.8-45.82,5.69L106,195.56v28.85a113.79,113.79,0,0,0,3.66,23.19,28.82,28.82,0,0,0,4.9,10.92c4.61,5.83,13.37,10,22.93,11a55,55,0,0,1-12.32,12.67c-5.54,4.12-12.11,7.48-19.17,10.67v10.35l3.58-1.54,14.5,10.45,43,31,13,9.35c-12.61,7-25.11,12.56-38.28,14.06-3.13.35-6.86.54-10.85.74a184,184,0,0,0-25,2.51v9c.66-.15,1.31-.29,2-.42a161.47,161.47,0,0,1,23.61-2.41c4.25-.22,8.27-.42,12-.84,23-2.62,42.29-14.37,62.68-26.81,21.24-13,45.32-27.67,76.49-32.09,33.08-4.7,69.95,3.39,96.23,21.12l0,0v-11.9a156.35,156.35,0,0,0-50-17c9.51-6.56,16.27-15,18.84-24.05.15-.53.28-1.06.41-1.59a26.09,26.09,0,0,0,.66-5.78,24.91,24.91,0,0,0-.18-3L379,265v-9.51l-32.88,9.81A35.94,35.94,0,0,0,338.45,255L379,236v-4.8L334.8,251.9A63,63,0,0,0,311.18,241L273,231.71l91-76.6,15,1.55v-8.81l-10.94-1.13Zm-182.47,37.3,47.33,9.26-2.58,91.61L169,206.43ZM119.68,256.64c-2.39-3-3.48-6.62-4.31-9.75a110.86,110.86,0,0,1-3.71-26.75l42.88-5.32-2.7,14c-2.62,13.6-5.55,26.13-11.89,36.85C131.55,265.2,123.68,261.72,119.68,256.64Zm9.19,53.12-14.36-10.35A112.52,112.52,0,0,0,134.58,288c20.23-15,25.52-35.19,29.92-58l2.83-14.71,60.93,14.82a102.9,102.9,0,0,0-7.31,25.5,62.18,62.18,0,0,0,.2,19,48.51,48.51,0,0,0,1.3,5.45L149.32,324.5Zm69.19,32c-4.55,2.78-9,5.51-13.51,8.11l-13.13-9.47-18.1-13.05,70.61-42.9a57.37,57.37,0,0,0,12.81,19.41,67.37,67.37,0,0,0,14.33,10.94C230.61,321.93,213.62,332.29,198.06,341.79ZM306.89,249.2c19.84,4.82,31.93,18.38,28.74,32.22-.1.43-.21.86-.33,1.28-2.71,9.49-11.09,18.24-22.67,23.82a152.86,152.86,0,0,0-55.73,6.41,62.33,62.33,0,0,1-15-11,51.92,51.92,0,0,1-14.94-27.8,58.12,58.12,0,0,1-.32-17.23,98.54,98.54,0,0,1,7.17-25.52Zm-11-50.85L260,228.56l-23.92-5.82,2.58-91.88,57.22,11.19Zm6.56-5.52v-49.5l47.71,9.34Z" style="fill:#e0e0e0"></path><polygon points="162.32 126.05 120.98 124.74 120.98 170 154.99 170 162.32 126.05" style="fill:#ebebeb"></polygon><rect x="114.43" y="178.52" width="39.36" height="18.46" style="fill:#ebebeb"></rect><polygon points="256.55 114.34 346.2 130.18 346.2 83.38 289.35 83.38 289.35 104.68 256.55 104.68 256.55 114.34" style="fill:#ebebeb"></polygon><polygon points="234.69 110.83 234.69 72.02 207.11 72.02 202.29 104.66 234.69 110.83" style="fill:#ebebeb"></polygon><rect x="247.8" y="70.6" width="28.43" height="19.88" style="fill:#e0e0e0"></rect><polygon points="293.9 227.24 340.95 241.99 361.56 227.6 311.07 212.61 293.9 227.24" style="fill:#e6e6e6"></polygon><rect x="195.33" y="135.92" width="26.24" height="58.22" style="fill:#ebebeb"></rect><rect x="177.84" y="191.3" width="6.56" height="11.36" style="fill:#e0e0e0"></rect><polygon points="287.16 149.22 247.8 141.04 247.8 170.74 247.8 175.68 287.16 175.68 287.16 149.22" style="fill:#ebebeb"></polygon><rect x="243.43" y="192.72" width="8.75" height="17.04" style="fill:#ebebeb"></rect><rect x="256.55" y="192.72" width="8.75" height="17.04" style="fill:#ebebeb"></rect><rect x="269.67" y="192.72" width="8.75" height="17.04" style="fill:#ebebeb"></rect><polygon points="118.8 64.5 106 64.5 106 99.73 118.8 100.19 118.8 64.5" style="fill:#e6e6e6"></polygon><polygon points="164.51 101.73 170.59 64.5 129.73 64.5 129.73 100.49 164.51 101.73" style="fill:#e6e6e6"></polygon><polygon points="379 317.25 379 299.66 370.89 313.49 379 317.25" style="fill:#f0f0f0"></polygon><path d="M182.78,350C203.5,340,217,319.9,237.11,308.9a41.06,41.06,0,0,1,16.77-5.36c5.25-.36,10.29.08,15.43-1.39,7.19-2,11.56-6.67,14.72-13.37,3.89-8.26,6.82-19.11,3.09-27.87a36.82,36.82,0,0,0-18.19-18.79c-4.46-2.1-9.25-3.35-13.81-5.22-3-1.22-6.54-2.55-9-4.73-1.86-1.67-1.12-2.74.07-4.92a55.69,55.69,0,0,1,5.46-7.68c3.69-4.62,8.11-9.11,10.82-14.43,1.9-3.72,2.24-7.92,2.3-12,.2-13.34.7-26.65,1-40,0-1.47-2.19-1.45-2.28,0-.73,11.86-1.43,23.82-1.18,35.71.09,4.34.34,9.11-1.13,13.28-1.94,5.51-6.61,10.11-10.23,14.55a64,64,0,0,0-7.63,10.84c-.91,1.78-1.46,3-.37,4.79,2.43,4,9.12,6,13.25,7.59,5.21,2,10.52,3.4,15.38,6.29a33.75,33.75,0,0,1,11.18,11.27c4.18,6.62,4.66,12.88,2.88,20.43-2.3,9.77-6.61,19.55-16.88,22.58-5,1.48-9.87,1.09-14.95,1.45a39.27,39.27,0,0,0-12.54,3.19c-22.8,9.73-37.5,32.17-59,44.19-.5.28-.06,1,.44.76Z" style="fill:#263238"></path><path d="M196.66,289.41c1.57-13.53-15.84-17.8-22.5-7.86-6.09,9.1,10.58,35.85,10.58,35.85h0m3-22.78a6.57,6.57,0,1,1,1.66-9.14A6.58,6.58,0,0,1,187.72,294.62Z" style="fill:#894200"></path></g><g id="freepik--Character--inject-44"><path d="M380.28,175.94c-4.67-6.86-7.83-10.27-14.54-12.7a26.32,26.32,0,0,0-8-1.53h0c-6.42,2-10.85,2-17.28,0-3.29.41-6.1-2-22.9,8.43-6.93,4.3-11.69,7.14-19.92,11.38-2.25,1-3.84,1.65-4.19,1.44-1.52-.91-18.09-31.23-18.09-31.23s-3.69-10.48-5.24-10.41-12.55.4-12.72,2.12.51,9.29,1.71,10.32,5.53,3.79,5.53,3.79,18.38,47.52,25.17,46.84c5-.49,24.12-8.45,34.06-12.68l2.2-.79,1.31,27.55-.53,34.72,43.33-2.46L369.48,215c.33-8.9.1-11.77,1-19.15l13,4.94,2.31-14.66A74,74,0,0,0,380.28,175.94Z" style="fill:#e5baab"></path><path d="M262.9,133.72c-2.48-6-12.44-4.89-13.28,1.43C248.45,144,265.54,151,265.54,151v-.6S264.82,138.37,262.9,133.72Zm-2.66,5.08a3.64,3.64,0,1,1-1.91-4.78A3.64,3.64,0,0,1,260.24,138.8Z" style="fill:#894200"></path><path d="M260.8,148.8a6.82,6.82,0,0,1,1.65,1l1.71,1.22c.32.24.65.47,1,.75a1.93,1.93,0,0,1,.75,1.3,1.18,1.18,0,0,1-.73,1.14,1.75,1.75,0,0,1-1.21.05,11,11,0,0,1-1.74-.83c-1-.52-1.71-.93-2-1.13l.09-.09c.05.14.06.21.05.22s-.07,0-.16-.16l-.11-.14.19.05c.34.11,1.09.42,2.12.89a15.61,15.61,0,0,0,1.69.72c.56.19,1.34-.09,1.29-.69s-.94-1.19-1.52-1.7l-1.64-1.3A8,8,0,0,1,260.8,148.8Z" style="fill:#d78776"></path><path d="M262.52,146.34a5.52,5.52,0,0,1,1.86.76,6.71,6.71,0,0,1,1.75,1.35,4.39,4.39,0,0,1,.76,1.1,2,2,0,0,1,.21,1.52,1.1,1.1,0,0,1-.62.63,1.65,1.65,0,0,1-.78.1,4.34,4.34,0,0,1-1.29-.39,8.28,8.28,0,0,1-1.89-1.14c-1-.79-1.39-1.46-1.34-1.5s.57.52,1.56,1.21a10.6,10.6,0,0,0,1.86,1,4.22,4.22,0,0,0,1.14.32c.4,0,.76-.08.87-.4a1.54,1.54,0,0,0-.18-1.12,4,4,0,0,0-.66-1,7,7,0,0,0-1.58-1.35A11.11,11.11,0,0,1,262.52,146.34Z" style="fill:#d78776"></path><path d="M270.09,141.84l-8.63,2.54a1.58,1.58,0,0,0-1,.61c-.32.6.25,1.31.84,1.65a7.09,7.09,0,0,0,4.2.81,22.13,22.13,0,0,0,4.23-1" style="fill:#e5baab"></path><path d="M269.72,146.49a2.71,2.71,0,0,1-.76.33,19.8,19.8,0,0,1-2.17.63,9.62,9.62,0,0,1-3.38.18,6.49,6.49,0,0,1-1.94-.6,2.75,2.75,0,0,1-.92-.66,1.47,1.47,0,0,1-.44-1.18,1.3,1.3,0,0,1,.88-.93c.36-.13.69-.21,1-.31l1.88-.54,3.21-.88a17.85,17.85,0,0,1,3-.69,19.07,19.07,0,0,1-2.88,1l-3.18,1-1.88.57c-.63.21-1.46.33-1.52.84a1,1,0,0,0,.31.74,2.36,2.36,0,0,0,.76.55,6,6,0,0,0,1.78.58,9.88,9.88,0,0,0,3.24-.06C268.56,146.75,269.69,146.4,269.72,146.49Z" style="fill:#d78776"></path><path d="M385.5,305.88a19.17,19.17,0,0,0,16.86-30.3c-2.71-3.79-6.7-6.45-10.59-9l-14-9.23,4.27,36.19,3.42,12.36" style="fill:#894200"></path><path d="M405.38,281.92a2.48,2.48,0,0,1-.75.91,6.66,6.66,0,0,1-2.92,1.4c-2.7.64-6.66.08-10.34-1.91a32.77,32.77,0,0,1-8.25-6.65c-.93-1-1.65-1.81-2.14-2.39a5.88,5.88,0,0,1-.73-.93,4.91,4.91,0,0,1,.87.8l2.26,2.26a36.18,36.18,0,0,0,8.23,6.45,16,16,0,0,0,10,2,6.94,6.94,0,0,0,2.87-1.19C405.09,282.23,405.35,281.89,405.38,281.92Z" style="fill:#263238"></path><path d="M369.51,216.46l1-20.63s-7.09-5.93-4.77-32.59l-3.41-1s-2.1,33.56-19.12,32.09-11-31.63-11-31.63a8.23,8.23,0,0,0-5.05,2.09c-.13.06-.75,11-1.09,20.31a20.8,20.8,0,0,0-2.7,10.82,13.32,13.32,0,0,0,3.16,7.83c.46,6.31.92,14.69.92,14.69l-6.63,17.16,1.59,6.05,48.63-.54,1.44-6.47Z" style="fill:#455a64"></path><path d="M362.18,193.31a5.07,5.07,0,0,1-.93,2c-.64,1-1.26,1.81-1.38,1.74s.29-1,.93-2S362.06,193.23,362.18,193.31Z" style="fill:#fff"></path><path d="M364.22,210.66c-.11.1-1-.68-2.09-1.75a7.47,7.47,0,0,1-1.72-2.11c.11-.11,1,.68,2.09,1.74A7.43,7.43,0,0,1,364.22,210.66Z" style="fill:#fff"></path><path d="M336.12,197.63a17,17,0,0,1-5,3.22,17,17,0,0,1,5-3.22Z" style="fill:#fff"></path><path d="M328.46,196.4a5.63,5.63,0,0,1-2.22-1c-1.16-.67-2-1.31-2-1.43a5.69,5.69,0,0,1,2.22,1C327.65,195.64,328.53,196.28,328.46,196.4Z" style="fill:#fff"></path><path d="M328.63,175.57a7.84,7.84,0,0,1,.14,2.77,7.68,7.68,0,0,1-.38,2.74,7.22,7.22,0,0,1-.14-2.76A7.31,7.31,0,0,1,328.63,175.57Z" style="fill:#fff"></path><path d="M363.94,179.2c.13.07-.13.84-.57,1.73s-.91,1.56-1,1.5.13-.84.57-1.73S363.81,179.14,363.94,179.2Z" style="fill:#fff"></path><path d="M346.17,206.36a9.85,9.85,0,0,1-.71-4.43,9.91,9.91,0,0,1,.71,4.43Z" style="fill:#fff"></path><path d="M357.22,192.78c.06.13-.4.48-1,.77s-1.19.44-1.25.31.4-.48,1-.78S357.16,192.65,357.22,192.78Z" style="fill:#fff"></path><path d="M369.17,200.54c.05.13-.46.42-1.13.63s-1.25.28-1.3.15.47-.43,1.14-.64S369.13,200.4,369.17,200.54Z" style="fill:#fff"></path><path d="M333,192.53c-.12.07-.68-.64-1.25-1.6s-.93-1.8-.81-1.87.69.64,1.26,1.6S333.11,192.46,333,192.53Z" style="fill:#fff"></path><path d="M333.69,207.43c-.13.06-.38-.25-.69-.58s-.59-.63-.52-.76.53,0,.9.41S333.83,207.39,333.69,207.43Z" style="fill:#fff"></path><path d="M327.47,231.22a4.63,4.63,0,0,1,.22-2.14c.27-1.15.6-2.05.74-2a4.56,4.56,0,0,1-.23,2.14C327.94,230.35,327.61,231.25,327.47,231.22Z" style="fill:#fff"></path><path d="M337.91,231.59c-.1.09-.87-.56-1.71-1.47s-1.43-1.73-1.32-1.82.87.56,1.71,1.47S338,231.49,337.91,231.59Z" style="fill:#fff"></path><path d="M333.15,237.16c0,.14-.89,0-1.89-.39s-1.76-.75-1.71-.89.89,0,1.89.4S333.2,237,333.15,237.16Z" style="fill:#fff"></path><path d="M346.79,230.05a4.8,4.8,0,0,1-.72,2.09c-.53,1.09-1.07,1.92-1.2,1.86a4.9,4.9,0,0,1,.73-2.09C346.13,230.82,346.66,230,346.79,230.05Z" style="fill:#fff"></path><path d="M358.51,232.7a4.6,4.6,0,0,1-2,2.37,4.51,4.51,0,0,1-2.91,1c0-.15,1.27-.53,2.62-1.47S358.38,232.62,358.51,232.7Z" style="fill:#fff"></path><path d="M368.07,236a13.45,13.45,0,0,1-3-2.05,13.08,13.08,0,0,1-2.71-2.46,13,13,0,0,1,3,2A12.48,12.48,0,0,1,368.07,236Z" style="fill:#fff"></path><path d="M353.07,219.5a10.78,10.78,0,0,1-2.35,2.31,10.14,10.14,0,0,1-2.68,1.91,10.78,10.78,0,0,1,2.35-2.31A10.14,10.14,0,0,1,353.07,219.5Z" style="fill:#fff"></path><path d="M338.56,220a8.56,8.56,0,0,1-2.19-2,8.24,8.24,0,0,1-1.81-2.3,8.53,8.53,0,0,1,2.19,1.94A8.68,8.68,0,0,1,338.56,220Z" style="fill:#fff"></path><path d="M352.32,213a7.44,7.44,0,0,1-2.55,1,7.61,7.61,0,0,1-2.7.51,14.44,14.44,0,0,1,5.25-1.52Z" style="fill:#fff"></path><path d="M365,222a7.59,7.59,0,0,1-1.48-2.38,7.77,7.77,0,0,1-1-2.61,7.59,7.59,0,0,1,1.48,2.38A7.77,7.77,0,0,1,365,222Z" style="fill:#fff"></path><path d="M329.28,216.73a7.18,7.18,0,0,1,0,2.65,7,7,0,0,1-.51,2.6,6.69,6.69,0,0,1,0-2.65A6.8,6.8,0,0,1,329.28,216.73Z" style="fill:#fff"></path><path d="M330.84,142.05a18.25,18.25,0,0,1-7.4-.39A8.48,8.48,0,0,1,318,137a5.57,5.57,0,0,1,1.81-6.63c1-.64,2.31-1,2.77-2.09s-.37-2.5-.95-3.69a8.25,8.25,0,0,1,11.54-10.74,11.13,11.13,0,0,1,22.14-.38c.19,1.59.06,3.3.87,4.69.92,1.58,2.81,2.3,4.09,3.61,2.49,2.55,2.15,6.73,1,10.11s-2.94,6.68-2.83,10.25" style="fill:#263238"></path><path d="M340.35,161.9c-.24-3.53-.51-6.75-.51-6.75s-7.34-.59-8-7.85-.58-24-.58-24l13.18-6.85,13.31,10.78.24,34a8.84,8.84,0,0,1-8.21,8.89h0A8.85,8.85,0,0,1,340.35,161.9Z" style="fill:#e5baab"></path><path d="M333.05,135.46a.93.93,0,1,0,.91-1A.93.93,0,0,0,333.05,135.46Z" style="fill:#263238"></path><path d="M332.13,134.47c.12.12.79-.48,1.79-.56s1.77.39,1.87.25-.08-.28-.42-.5a2.49,2.49,0,0,0-2.92.25C332.16,134.18,332.07,134.42,332.13,134.47Z" style="fill:#263238"></path><path d="M343.83,135.2a.92.92,0,0,0,.95.91.93.93,0,1,0,0-1.86A.92.92,0,0,0,343.83,135.2Z" style="fill:#263238"></path><path d="M343.22,134.2c.13.12.8-.48,1.8-.56s1.76.39,1.86.25-.08-.28-.41-.5A2.51,2.51,0,0,0,345,133a2.37,2.37,0,0,0-1.42.6C343.26,133.91,343.16,134.15,343.22,134.2Z" style="fill:#263238"></path><path d="M339.82,142.74a6,6,0,0,1-1.65.13,1.35,1.35,0,0,1-.44,0,.68.68,0,0,1-.44-.36,1.64,1.64,0,0,1,.07-1.06c.2-.66.4-1.36.61-2.1a36.2,36.2,0,0,1,1.8-5.32,38,38,0,0,1-1.39,5.45c-.22.73-.43,1.42-.64,2.09a1.46,1.46,0,0,0-.12.8c.05.18.3.21.55.22A7,7,0,0,1,339.82,142.74Z" style="fill:#263238"></path><path d="M343.28,143.56c.07-.08-2.89,1.79-4.93,1.84a2.77,2.77,0,0,0,3.34.86A2.31,2.31,0,0,0,343.28,143.56Z" style="fill:#fff"></path><path d="M339.84,155.15a18.12,18.12,0,0,0,9.55-3.48s-2.05,5.39-9.34,5.26Z" style="fill:#d78776"></path><path d="M328,125.48c2.28,2.12,5.86,2.42,8.78,1.34A16.87,16.87,0,0,0,344,121a10.64,10.64,0,0,0,9.77,2.77c.52,6.61,1.67,10.65,4.15,17.28,0,0-.58,2.89.3,2.49.85-4.58,1.66-9.46,2.51-14,.3-1.66.6-3.44-.06-5s-2.36-2.69-3.82-3.76c-1.81-1.33-3.47-2.87-5.31-4.15a12.63,12.63,0,0,0-6.18-2.5,17.07,17.07,0,0,0-6.69,1.33,21.82,21.82,0,0,0-7,3.39c-2,1.66-3.42,4.3-2.9,6.85" style="fill:#263238"></path><path d="M357.79,134.13a6.84,6.84,0,0,1,2.32-.62,2.39,2.39,0,0,1,2.1,1,2.29,2.29,0,0,1,.21,1.74,3.27,3.27,0,0,1-4.58,2.18" style="fill:#e5baab"></path><path d="M347.44,132.36c.11,0,.19.5-.21.92s-.92.36-.91.24.33-.24.6-.54S347.31,132.36,347.44,132.36Z" style="fill:#263238"></path><path d="M321.52,248,308.94,437.68c-.93.17-12.73,2.41-12.42,4.13s30.23.72,30.23.72l17.6-164.83,27.39-32.33Z" style="fill:#e5baab"></path><path d="M326.43,441.09c0,.29-6.88.47-15.36.4s-15.37-.36-15.36-.65,6.88-.46,15.36-.39S326.43,440.8,326.43,441.09Z" style="fill:#263238"></path><path d="M305.74,441.41c-.15,0-.39-1.14-1.24-2.27s-1.87-1.72-1.8-1.86a4.22,4.22,0,0,1,3,4.13Z" style="fill:#263238"></path><path d="M327,436.14a22.81,22.81,0,0,0-14.63,4.7,7,7,0,0,1,1.72-1.57,17.9,17.9,0,0,1,5-2.54,17.59,17.59,0,0,1,5.57-.86A7.14,7.14,0,0,1,327,436.14Z" style="fill:#263238"></path><path d="M327.1,434.07a83,83,0,0,1-9.25,0,82.78,82.78,0,0,1-9.24-.5,81.32,81.32,0,0,1,9.25,0A84.11,84.11,0,0,1,327.1,434.07Z" style="fill:#263238"></path><path d="M327.29,430.79a84.61,84.61,0,0,1-9.33.5,80.3,80.3,0,0,1-9.35,0,87.43,87.43,0,0,1,9.33-.5A86.08,86.08,0,0,1,327.29,430.79Z" style="fill:#263238"></path><path d="M296,440.9a1.2,1.2,0,0,0,.62,1.55,2.76,2.76,0,0,0,1.84,0,7.15,7.15,0,0,1,1.83-.36c1.29,0,2.47,1,3.75.83.77-.09,1.45-.59,2.21-.71,1.35-.2,2.62.8,4,.79s2.63-1,4-.92,2.31,1.11,3.56,1.13c1,0,1.88-.59,2.86-.63,1.34-.05,2.6.94,3.92.69a1.8,1.8,0,0,0,1.26-.91,1.33,1.33,0,0,0-.2-1.5" style="fill:#263238"></path><path d="M322.48,431.15c0,.05-.6-.21-1.3-.95a3.88,3.88,0,0,1-.89-1.56,3.48,3.48,0,0,1-.12-1.09,1.57,1.57,0,0,1,.53-1.16.81.81,0,0,1,.77-.09,1.34,1.34,0,0,1,.52.4,3.62,3.62,0,0,1,.52,1,3.87,3.87,0,0,1,.22,1.78c-.14,1-.58,1.54-.62,1.5s.22-.58.25-1.52a4,4,0,0,0-.29-1.59,3.47,3.47,0,0,0-.48-.8c-.2-.24-.43-.35-.59-.21a1.13,1.13,0,0,0-.32.78,3.13,3.13,0,0,0,.07.92,4,4,0,0,0,.71,1.45C322,430.71,322.54,431.08,322.48,431.15Z" style="fill:#263238"></path><path d="M322.46,430.54c-.06,0-.12-.52.29-1.22a3,3,0,0,1,1-1,3.25,3.25,0,0,1,.79-.31.82.82,0,0,1,.58.07.58.58,0,0,1,.25.63,2.63,2.63,0,0,1-2,2.23c-.8.17-1.27-.07-1.25-.12s.49,0,1.15-.23a2.43,2.43,0,0,0,1.59-1.95c0-.13,0-.12,0-.12a.44.44,0,0,0-.22,0,2.64,2.64,0,0,0-1.58,1C322.62,430.09,322.54,430.55,322.46,430.54Z" style="fill:#263238"></path><path d="M385.69,430.91l-.26.07-8.22-66.37-7.77-116-22.65,21.43c-.56,1.05,7.11,93.53,8.74,100,1.54,6.08,11.13,58.69,12.29,65.05-1.35.68-11.47,5.81-10.72,7.33s29.27-7.6,29.27-7.6Z" style="fill:#e5baab"></path><path d="M386.5,435c.08.28-6.49,2.34-14.67,4.6s-14.87,3.87-14.95,3.59,6.5-2.33,14.68-4.6S386.43,434.68,386.5,435Z" style="fill:#263238"></path><path d="M366.7,440.94c-.14.06-.7-1-1.82-1.85s-2.27-1.14-2.24-1.3a4.24,4.24,0,0,1,4.06,3.15Z" style="fill:#263238"></path><path d="M385.71,430a28.62,28.62,0,0,0-7.13,3.16,28.16,28.16,0,0,0-5.65,5.38,6.86,6.86,0,0,1,1.23-2,17.88,17.88,0,0,1,9.25-6.17A7.28,7.28,0,0,1,385.71,430Z" style="fill:#263238"></path><path d="M385.22,428a83.11,83.11,0,0,1-8.9,2.55,80.42,80.42,0,0,1-9,2,84.62,84.62,0,0,1,8.9-2.54A82,82,0,0,1,385.22,428Z" style="fill:#263238"></path><path d="M384.5,424.81a83.94,83.94,0,0,1-8.84,3.05,83.26,83.26,0,0,1-9,2.54,82.67,82.67,0,0,1,8.84-3A87.85,87.85,0,0,1,384.5,424.81Z" style="fill:#263238"></path><path d="M357.19,443.11a1.18,1.18,0,0,0,1,1.32A2.71,2.71,0,0,0,360,444a7.24,7.24,0,0,1,1.66-.85c1.25-.34,2.65.28,3.84-.23.72-.3,1.23-1,1.94-1.29,1.24-.57,2.73,0,4-.33s2.25-1.71,3.6-2,2.53.44,3.75.11c.94-.25,1.64-1.08,2.57-1.38,1.27-.42,2.76.18,4-.42a1.77,1.77,0,0,0,1-1.22,1.34,1.34,0,0,0-.61-1.39" style="fill:#263238"></path><path d="M380,426.48a3,3,0,0,1-1.52-.56,3.72,3.72,0,0,1-1.28-1.26,3.15,3.15,0,0,1-.41-1,1.58,1.58,0,0,1,.19-1.26.77.77,0,0,1,.71-.3,1.31,1.31,0,0,1,.61.25,3.51,3.51,0,0,1,.77.77,4,4,0,0,1,.7,1.66,2.21,2.21,0,0,1-.19,1.61c-.09,0,.06-.62-.17-1.54a4.22,4.22,0,0,0-.72-1.44,3.46,3.46,0,0,0-.68-.64c-.26-.18-.51-.22-.62-.05a1.11,1.11,0,0,0-.1.84,3.12,3.12,0,0,0,.32.87,4,4,0,0,0,1.08,1.2C379.43,426.18,380,426.4,380,426.48Z" style="fill:#263238"></path><path d="M379.78,425.9s-.25-.47,0-1.26a2.84,2.84,0,0,1,.69-1.21,3.05,3.05,0,0,1,.68-.52.82.82,0,0,1,.57-.09.59.59,0,0,1,.41.53,2.63,2.63,0,0,1-1.31,2.7c-.72.38-1.24.28-1.23.23s.46-.13,1-.54a2.41,2.41,0,0,0,1-2.31c0-.13,0-.12,0-.11a.37.37,0,0,0-.22.05,2.73,2.73,0,0,0-1.24,1.39C379.82,425.42,379.87,425.89,379.78,425.9Z" style="fill:#263238"></path><path d="M371,237.48l-48.63.55-15.42,65.54s-3.79,16,15.18,16.77,27.9-7.53,43.73-1.42c10.28,4,25.18-3.43,24.45-5.12C381.52,293.57,381.72,264.55,371,237.48Z" style="fill:#263238"></path><path d="M385.82,318.36s-.08-.28-.2-.81-.29-1.33-.56-2.33A60.35,60.35,0,0,0,382,307a107.58,107.58,0,0,1-5-12.15A67.75,67.75,0,0,1,374.47,279c-.33-5.7-.35-11.13-.68-16A72.75,72.75,0,0,0,371.94,250,42,42,0,0,0,369,241.7c-.45-.94-.83-1.65-1.11-2.12a3.88,3.88,0,0,1-.38-.75,7,7,0,0,1,.47.69,21.85,21.85,0,0,1,1.2,2.09,38.53,38.53,0,0,1,3.13,8.28,71.66,71.66,0,0,1,2,13c.36,4.94.39,10.37.72,16a68.73,68.73,0,0,0,2.46,15.77,116.78,116.78,0,0,0,4.85,12.14,53.52,53.52,0,0,1,2.95,8.35c.24,1,.41,1.81.48,2.36A4.29,4.29,0,0,1,385.82,318.36Z" style="fill:#455a64"></path><path d="M340.45,264.49s-.07.08-.26.15a1.8,1.8,0,0,1-.87.09,3,3,0,0,1-2.33-2.07,14,14,0,0,1-.28-4.67c.05-1.76.11-3.67.17-5.67.14-4,.29-7.66.42-10.3.08-1.23.14-2.27.19-3.12a5.77,5.77,0,0,1,.14-1.14,4.36,4.36,0,0,1,.06,1.15c0,.85,0,1.89,0,3.12,0,2.64-.13,6.28-.27,10.31-.07,2-.14,3.91-.21,5.66a14.7,14.7,0,0,0,.15,4.54,2.81,2.81,0,0,0,2,2A3,3,0,0,0,340.45,264.49Z" style="fill:#455a64"></path><path d="M340.35,240.3c-.06,0,.4-.4,1.13-.08a1.48,1.48,0,0,1,.84,1,1.33,1.33,0,0,1-.81,1.43,1.29,1.29,0,0,1-1.61-.33,1.31,1.31,0,0,1,0-1.35,1.06,1.06,0,0,1,.68-.56c.21-.05.32,0,.32,0s-.46.11-.66.69a1,1,0,0,0,.08.9.82.82,0,0,0,1,.14.86.86,0,0,0,.56-.87,1.13,1.13,0,0,0-.54-.78C340.79,240.22,340.37,240.38,340.35,240.3Z" style="fill:#455a64"></path><path d="M372.13,250.46a3.05,3.05,0,0,1-.86.13,19.92,19.92,0,0,1-2.39,0,14.48,14.48,0,0,1-7.48-2.35,9.45,9.45,0,0,1-4-6.66,6.39,6.39,0,0,1,.2-2.4,2.17,2.17,0,0,1,.34-.81,10.33,10.33,0,0,0-.18,3.17,9.49,9.49,0,0,0,3.95,6.27,15.19,15.19,0,0,0,7.21,2.41C370.89,250.43,372.13,250.37,372.13,250.46Z" style="fill:#263238"></path><path d="M326.39,237.58s.11.25.21.72a14.23,14.23,0,0,1,.2,2,17.11,17.11,0,0,1-1.17,6.67,11.59,11.59,0,0,1-3.92,5.51,4.64,4.64,0,0,1-1.95.75,1.58,1.58,0,0,1-.76,0,6.05,6.05,0,0,0,2.5-1,12.4,12.4,0,0,0,3.65-5.4,19.26,19.26,0,0,0,1.28-6.48C326.48,238.65,326.3,237.59,326.39,237.58Z" style="fill:#263238"></path><path d="M388.57,310a12.25,12.25,0,0,1-2.56,2.12,20.55,20.55,0,0,1-8.51,3,42.59,42.59,0,0,1-13.41-.64c-5-.84-10.4-2.22-16.2-2.27s-11.16,1.72-16,3a56.77,56.77,0,0,1-7,1.47,29.67,29.67,0,0,1-6.28.12,17.5,17.5,0,0,1-8.53-2.91,10.71,10.71,0,0,1-1.12-.88,7.6,7.6,0,0,1-.75-.73,6.67,6.67,0,0,1-.56-.65,23.8,23.8,0,0,0,2.55,2.09,17.73,17.73,0,0,0,8.45,2.72,29.78,29.78,0,0,0,6.19-.19,59.66,59.66,0,0,0,7-1.5c4.86-1.26,10.24-3.08,16.16-3s11.33,1.46,16.28,2.32a43,43,0,0,0,13.28.74,21.06,21.06,0,0,0,8.46-2.81C387.71,310.8,388.52,309.91,388.57,310Z" style="fill:#263238"></path><path d="M369.74,239.1c-.13.08-.41-.14-.63-.48s-.3-.69-.18-.77.4.13.62.48S369.86,239,369.74,239.1Z" style="fill:#455a64"></path><path d="M372.46,244.68c-.13.06-.51-.54-.85-1.32s-.51-1.46-.39-1.53.52.53.86,1.33S372.6,244.63,372.46,244.68Z" style="fill:#455a64"></path><path d="M374.28,250.63c-.14,0-.43-.61-.65-1.44s-.29-1.52-.15-1.57.43.6.65,1.44S374.42,250.59,374.28,250.63Z" style="fill:#455a64"></path><path d="M375.4,256.74c-.14,0-.36-.65-.5-1.5s-.12-1.54,0-1.57.36.64.5,1.49S375.54,256.72,375.4,256.74Z" style="fill:#455a64"></path><path d="M376,262.92c-.14,0-.32-.67-.39-1.52s0-1.56.13-1.58.31.67.39,1.53S376.18,262.91,376,262.92Z" style="fill:#455a64"></path><path d="M376.39,269.13c-.15,0-.29-.68-.34-1.54s0-1.56.18-1.57.3.69.34,1.55S376.53,269.13,376.39,269.13Z" style="fill:#455a64"></path><path d="M376.7,275.34c-.14,0-.3-.68-.34-1.54s0-1.56.17-1.56.3.68.35,1.54S376.84,275.33,376.7,275.34Z" style="fill:#455a64"></path><path d="M377.2,281.54c-.15,0-.33-.67-.41-1.52s0-1.57.12-1.58.32.68.4,1.53S377.34,281.52,377.2,281.54Z" style="fill:#455a64"></path><path d="M378.1,287.69c-.14,0-.37-.64-.51-1.49s-.15-1.56,0-1.58.38.65.52,1.49S378.24,287.66,378.1,287.69Z" style="fill:#455a64"></path><path d="M379.64,293.71c-.13.05-.44-.59-.68-1.42s-.32-1.53-.18-1.56.44.6.68,1.42S379.78,293.67,379.64,293.71Z" style="fill:#455a64"></path><path d="M382,299.45c-.12.07-.55-.5-.91-1.29s-.53-1.48-.4-1.53.52.53.87,1.31S382.16,299.38,382,299.45Z" style="fill:#455a64"></path><path d="M385,304.91c-.13.07-.57-.48-1-1.23s-.65-1.42-.52-1.49.56.49,1,1.24S385.13,304.85,385,304.91Z" style="fill:#455a64"></path><path d="M387.54,310.58c-.14.05-.5-.56-.81-1.35s-.46-1.48-.33-1.54.49.55.81,1.35S387.68,310.54,387.54,310.58Z" style="fill:#455a64"></path><path d="M388.39,315.11c-.15,0-.29-.32-.33-.72s.05-.75.19-.77.29.3.33.72S388.53,315.11,388.39,315.11Z" style="fill:#455a64"></path><path d="M334.13,162.17s27.68,89.16,45.48,102.49l-1.4-7.83c-10.71-18.72-23.55-55-37.87-95.12C339.15,160.78,334.66,161.12,334.13,162.17Z" style="fill:#894200"></path><path d="M369.92,195.18l9.59,21.34c-13.89-.08-29.09-3.28-35.47-5-.49-.47-1-1-1.61-1.61a8.91,8.91,0,0,1-1.63-2.44,13.46,13.46,0,0,1-1.17-3.46c-.1-1.11-1.48-1.55-2-.69s-.3,3.95,1.47,7.1-3.44,1-5.35.3-7.94-2.75-8.62-2.34c-1,.61-.52,1.82,1.41,2.51s7.58,3.19,7.16,4.19-10.1-2.92-10.1-2.92-2-1.17-2.46,0c-.93,2.06,9.66,5.44,10.68,5.73.7.21.29,1.31-.45,1.05s-9.59-4.12-10.56-2c-.74,1.6,8.69,2.86,10.11,4.68s-7.08-1.69-7.72-.13c-.24.58-.34,1,4.81,2.36a118.62,118.62,0,0,0,12.66,1.89c8.17,2.39,28.27,7,42.89,6.57,0,0,20.73.36,17.14-12.18-3.86-13.44-14.9-33.95-14.9-33.95Z" style="fill:#e5baab"></path><path d="M359,138a.74.74,0,0,0-.83.63.72.72,0,0,0,.71.74.7.7,0,0,0,.62-.82.68.68,0,0,0-.92-.42" style="fill:#894200"></path></g><g id="freepik--Plants--inject-44"><path d="M452.88,379.71a8.92,8.92,0,0,0-6.21,3.24,16,16,0,0,0-3.12,6.43c-1.16,4.5-.37,9.79.94,14.25,4.85-1.78,7.8-7,9.14-9.73,2.1-4.32,3.28-13.42-.75-14.19" style="fill:#894200"></path><path d="M452.88,379.71a8.92,8.92,0,0,0-6.21,3.24,16,16,0,0,0-3.12,6.43c-1.16,4.5-.37,9.79.94,14.25,4.85-1.78,7.8-7,9.14-9.73,2.1-4.32,3.28-13.42-.75-14.19" style="opacity:0.2"></path><path d="M437.55,409.13a7.65,7.65,0,0,0,.29-7.66,10.17,10.17,0,0,0-6.15-4.86,4.27,4.27,0,0,0-3.59.21,3.25,3.25,0,0,0-1.23,3.07,6.57,6.57,0,0,0,1.42,3.13c2.39,3.18,5.29,5.82,9.26,6.11" style="fill:#894200"></path><path d="M437.51,424.57a3.85,3.85,0,0,0,.24-.95c.12-.61.27-1.51.43-2.62a32.61,32.61,0,0,0,.23-8.77,16.47,16.47,0,0,0-3.29-8.12,10.77,10.77,0,0,0-1.92-1.87,2.76,2.76,0,0,0-.83-.51,23,23,0,0,1,2.46,2.61,17.23,17.23,0,0,1,3.06,8,37.62,37.62,0,0,1-.08,8.66A29.74,29.74,0,0,0,437.51,424.57Z" style="fill:#263238"></path><path d="M451.38,386.55a9.27,9.27,0,0,0-.72,1.45c-.43.94-1,2.31-1.76,4-1.45,3.4-3.38,8.14-5.38,13.43s-3.68,10.12-4.85,13.63c-.58,1.76-1,3.19-1.34,4.18a8.43,8.43,0,0,0-.41,1.55,11,11,0,0,0,.6-1.49c.39-1.06.89-2.44,1.5-4.12,1.25-3.48,3-8.29,5-13.57s3.87-10,5.23-13.48c.65-1.65,1.19-3,1.61-4.07A10.1,10.1,0,0,0,451.38,386.55Z" style="fill:#263238"></path><path d="M442.59,413.55a17.89,17.89,0,0,1,14.35-7.79c1.44,0,3.15.33,3.71,1.65s-.38,2.81-1.42,3.81a15.25,15.25,0,0,1-16.71,2.71" style="fill:#894200"></path><path d="M454.46,409.3a3.13,3.13,0,0,0-.94,0,7.39,7.39,0,0,0-1.09.14,12,12,0,0,0-1.42.29,18.67,18.67,0,0,0-3.56,1.3,21.94,21.94,0,0,0-3.93,2.49,22.42,22.42,0,0,0-3.24,3.33,19.15,19.15,0,0,0-2,3.23,11,11,0,0,0-.58,1.33,6.35,6.35,0,0,0-.35,1,3.37,3.37,0,0,0-.21.91c.1,0,.47-1.25,1.47-3.12a21.32,21.32,0,0,1,2.05-3.09,21.15,21.15,0,0,1,7-5.69,20.65,20.65,0,0,1,3.45-1.37C453.14,409.5,454.47,409.4,454.46,409.3Z" style="fill:#263238"></path><path d="M62,202.36c14-6.18,20.69,37.87,21.59,41.3s3.28,3.84,7.35-1.3,7.58-3.15,7.58-3.15c7.66,4.67-2.73,31.85-2.63,34.06s-1.54,5.39,6.42.89,14.64-6.9,15.8,0c1.06,6.28-7.07,24.41-7,27s8.29-3.92,11.75-6.08c4.48-2.78,9.26-2.59,10.1,3,1.09,7.33-13.48,28.77-13.48,28.77l-7,10.92-12.79-3.45s-25-7.06-28.91-13.34c-3-4.83.49-8.08,5.69-8.88,4-.61,14.47-1,12.88-3s-19.55-10.47-22.84-15.93c-3.6-6,3-8.52,12-10.28s5.67-3.11,4.3-4.85-26.93-15.64-24.14-24.17c0,0,1.37-3.78,7.8-2.53s8-.6,6.42-3.8-25.06-41-10.44-45.42" style="fill:#894200"></path><path d="M119.91,358.22c-.27.1-12.22-31.91-26.68-71.49s-26-71.75-25.72-71.85,12.22,31.91,26.69,71.5S120.18,358.12,119.91,358.22Z" style="fill:#fff"></path><path d="M86.69,267.35c-.26-.1.81-3.71,2.71-7.92s3.86-7.43,4.11-7.29-1.29,3.52-3.16,7.71S87,267.44,86.69,267.35Z" style="fill:#fff"></path><path d="M69.48,260.11c.06-.27,4.12.53,8.82,2.44s8.2,4.13,8.06,4.36-3.8-1.53-8.44-3.4S69.4,260.4,69.48,260.11Z" style="fill:#fff"></path><path d="M97.17,296.55c-.22-.19,2.77-4,6.68-8.61s7.25-8.11,7.47-7.93-2.77,4-6.68,8.61S97.39,296.74,97.17,296.55Z" style="fill:#fff"></path><path d="M74,291.86c0-.27,5.47.18,12.06,1.48s11.8,2.92,11.73,3.19-5.37-.89-11.93-2.17S73.93,292.16,74,291.86Z" style="fill:#fff"></path><path d="M81.16,319.84c0-.29,5.74.31,12.73,1.34s12.62,2.09,12.57,2.37-5.73-.32-12.72-1.34S81.12,320.12,81.16,319.84Z" style="fill:#fff"></path><path d="M107.09,323.08c-.19-.25,3.68-3.36,7.7-7.92s6.67-8.75,6.93-8.59-2,4.65-6.15,9.28S107.23,323.3,107.09,323.08Z" style="fill:#fff"></path></g><g id="freepik--speech-bubbles--inject-44"><path d="M455.23,134.41s0-.23.06-.66.11-1.08.2-1.9c0-.42.13-.89.14-1.41s0-1.09,0-1.7,0-1.28,0-2-.12-1.45-.19-2.25a36.82,36.82,0,0,0-3-11.2,36.29,36.29,0,0,0-9-12.31l-1.64-1.42c-.58-.44-1.19-.86-1.79-1.29a35.81,35.81,0,0,0-3.89-2.4A36.3,36.3,0,0,0,427,92.59a37.54,37.54,0,0,0-5-.78c-.86-.1-1.74-.06-2.62-.09l-1.32,0c-.44,0-.88.07-1.33.1A34.56,34.56,0,0,0,406,94.15a36.48,36.48,0,0,0-17.88,14.77A37,37,0,0,0,383,133.21q.12.84.27,1.65l0,.11-.06.09-11.78,16.36-.24-.4,17.38-2.69.15,0,.09.13a36.3,36.3,0,0,0,21.36,15.05,27.13,27.13,0,0,0,4,.74l2,.25c.66.08,1.32.05,2,.08A36.25,36.25,0,0,0,432.66,162a37.48,37.48,0,0,0,10.74-6.61l2.05-1.93,1.76-2a19.82,19.82,0,0,0,1.53-2c.45-.67,1-1.27,1.33-1.93a37.9,37.9,0,0,0,3.39-6.89l.9-2.64c.18-.78.34-1.44.46-2l.3-1.2c.07-.28.11-.41.11-.41a3.17,3.17,0,0,1-.07.41c-.06.29-.14.7-.25,1.22s-.26,1.21-.43,2l-.87,2.66a37.25,37.25,0,0,1-3.33,7c-.37.67-.88,1.28-1.33,2a19.78,19.78,0,0,1-1.53,2l-1.76,2-2.05,2a37.6,37.6,0,0,1-10.81,6.72A36.59,36.59,0,0,1,418.21,165c-.66,0-1.34,0-2-.07l-2-.25a27.9,27.9,0,0,1-4.09-.74,37.89,37.89,0,0,1-8.05-3,37.31,37.31,0,0,1-13.61-12.17l.24.1-17.38,2.71-.6.09.36-.5c3.81-5.3,7.75-10.77,11.76-16.36l0,.2c-.1-.55-.2-1.11-.28-1.67a37.59,37.59,0,0,1,5.23-24.64,36.94,36.94,0,0,1,18.14-15,35.07,35.07,0,0,1,10.83-2.37c.45,0,.9-.08,1.35-.09l1.34,0c.89,0,1.77,0,2.64.09a38.2,38.2,0,0,1,5.1.81A35.34,35.34,0,0,1,440.23,98c.61.44,1.22.87,1.81,1.31l1.64,1.45a36.18,36.18,0,0,1,12,23.76c.06.8.12,1.56.17,2.27s0,1.38,0,2,0,1.19,0,1.71-.12,1-.16,1.41c-.11.82-.2,1.46-.26,1.9S455.23,134.41,455.23,134.41Z" style="fill:#263238"></path><polygon points="431.04 114.11 435.42 147.36 402.91 147.36 407.64 114.11 431.04 114.11" style="fill:#894200"></polygon><path d="M410.29,118.93a15.32,15.32,0,0,0,1.65,3.15,9,9,0,0,0,2.83,2.5,9.37,9.37,0,0,0,4.49,1.08,9.56,9.56,0,0,0,4.5-1,7.76,7.76,0,0,0,2.79-2.52,13.65,13.65,0,0,0,1.49-3.22,2.12,2.12,0,0,1-.13,1,8.89,8.89,0,0,1-1.05,2.45,7.84,7.84,0,0,1-2.87,2.74,9.64,9.64,0,0,1-4.74,1.09,9.51,9.51,0,0,1-4.71-1.18,8.78,8.78,0,0,1-2.9-2.71,9.5,9.5,0,0,1-1.17-2.4A2.32,2.32,0,0,1,410.29,118.93Z" style="fill:#fff"></path><polyline points="229.74 38.39 229.74 117.86 209.48 97.6 61.96 97.6 61.96 38.39 229.74 38.39" style="fill:#894200"></polyline><circle cx="189.04" cy="70.05" r="22.36" style="fill:#894200"></circle><circle cx="189.04" cy="70.05" r="22.36" style="opacity:0.2"></circle><path d="M77.47,62.79c0-.18,17.3-.33,38.64-.33s38.64.15,38.64.33-17.29.33-38.64.33S77.47,63,77.47,62.79Z" style="fill:#fff"></path><path d="M77.47,71.3c0-.18,17.3-.33,38.64-.33s38.64.15,38.64.33-17.29.32-38.64.32S77.47,71.48,77.47,71.3Z" style="fill:#fff"></path><path d="M114.59,79.67c0-.18,9-.33,20.08-.33s20.08.15,20.08.33-9,.32-20.08.32S114.59,79.85,114.59,79.67Z" style="fill:#fff"></path><path d="M113.05,54c0-.18,9.34-.33,20.85-.33s20.85.15,20.85.33-9.33.33-20.85.33S113.05,54.22,113.05,54Z" style="fill:#fff"></path><path d="M191,69.67a5.54,5.54,0,0,0,3.21-5.19,5.21,5.21,0,1,0-10.4.14,5.54,5.54,0,0,0,3.41,5.12c-8,1.35-7.46,10-7.46,10l18.93-.26S198.93,70.72,191,69.67Z" style="fill:#fff"></path><polyline points="196.74 151.78 196.74 184.38 188.43 176.07 127.91 176.07 127.91 151.78 196.74 151.78" style="fill:#894200"></polyline><path d="M157.91,159.57c0-.15,6.71-.26,15-.26s15,.11,15,.26-6.71.26-15,.26S157.91,159.71,157.91,159.57Z" style="fill:#fff"></path><path d="M178.16,166.34a16.93,16.93,0,0,1,4.21-.26,17,17,0,0,1,4.22.26,17.57,17.57,0,0,1-4.22.26A17.52,17.52,0,0,1,178.16,166.34Z" style="fill:#fff"></path><path d="M176.17,168.21c-.14,0-.38-.43-.66-1s-.51-1-.39-1.12.55.28.85.89S176.31,168.18,176.17,168.21Z" style="fill:#fff"></path><path d="M160.6,166.1a33,33,0,0,1,5.8-.26,32.85,32.85,0,0,1,5.79.26,31.74,31.74,0,0,1-5.79.26A31.9,31.9,0,0,1,160.6,166.1Z" style="fill:#fff"></path><path d="M159.2,168.09c-.13.07-.49-.37-.82-1s-.48-1.16-.35-1.23.49.38.82,1S159.33,168,159.2,168.09Z" style="fill:#fff"></path><path d="M142.35,166a35,35,0,0,1,6.08-.26,35.14,35.14,0,0,1,6.09.26,36.37,36.37,0,0,1-6.09.26A36.2,36.2,0,0,1,142.35,166Z" style="fill:#fff"></path><path d="M140.84,167c-.12.08-.49-.29-.83-.82s-.51-1-.39-1.09.49.28.83.81S141,167,140.84,167Z" style="fill:#fff"></path><path d="M134,165.52c0-.15.81-.26,1.81-.26s1.82.11,1.82.26-.82.26-1.82.26S134,165.66,134,165.52Z" style="fill:#fff"></path></g></svg>