<?xml version="1.0" encoding="UTF-8"?>
<!DOCTYPE svg PUBLIC "-//W3C//DTD SVG 1.1//EN" "http://www.w3.org/Graphics/SVG/1.1/DTD/svg11.dtd">
<!-- Creator: CorelDRAW 2021 (64-Bit) -->
<svg xmlns="http://www.w3.org/2000/svg" xml:space="preserve" width="127mm" height="127mm" version="1.1" style="shape-rendering:geometricPrecision; text-rendering:geometricPrecision; image-rendering:optimizeQuality; fill-rule:evenodd; clip-rule:evenodd"
viewBox="0 0 12700 12700"
 xmlns:xlink="http://www.w3.org/1999/xlink"
 xmlns:xodm="http://www.corel.com/coreldraw/odm/2003">
 <defs>
  <style type="text/css">
   <![CDATA[
    .fil3 {fill:#FEFEFE;fill-rule:nonzero}
    .fil0 {fill:#2C1901;fill-rule:nonzero}
    .fil2 {fill:#2C1901;fill-rule:nonzero}
    .fil1 {fill:#894200;fill-rule:nonzero}
    .fil4 {fill:#894200;fill-rule:nonzero}
   ]]>
  </style>
 </defs>
 <g id="Layer_x0020_1">
  <metadata id="CorelCorpID_0Corel-Layer"/>
  <g id="_1293368245072">
   <polygon class="fil0" points="2509.5,8486.93 2842.92,8486.93 2842.92,6721.33 2461.51,6721.33 1908.33,7480.36 1355.16,6721.33 971.23,6721.33 971.23,8486.93 1304.64,8486.93 1304.64,7203.35 1867.92,7972.49 1933.59,7972.49 2509.5,7205.88 "/>
   <path id="_1" class="fil0" d="M4136.18 7413.42c-70.73,-123.77 -229.86,-202.07 -396.57,-202.07 -363.73,-2.53 -649.15,222.28 -649.15,651.68 0,436.98 272.79,664.31 641.58,661.79 138.92,-2.53 333.41,-73.25 404.14,-219.75l15.15 181.86 290.48 0 0 -1245.27 -295.53 0 -10.1 171.76zm-368.78 73.25c484.97,0 484.97,755.25 0,755.25 -204.6,0 -368.78,-141.45 -368.78,-378.89 0,-237.43 164.18,-376.36 368.78,-376.36z"/>
   <path id="_2" class="fil0" d="M5591.09 8125.73c-75.78,75.77 -174.29,103.56 -272.8,103.56 -191.97,0 -353.63,-126.3 -353.63,-363.73 0,-217.23 151.56,-368.78 358.68,-368.78 85.88,0 176.82,32.83 250.07,98.51l194.49 -204.6c-136.4,-133.87 -272.8,-184.39 -449.61,-184.39 -361.2,0 -661.79,217.23 -661.79,659.26 0,442.03 300.59,659.26 661.79,659.26 184.39,0 335.95,-55.57 479.92,-197.02l-207.12 -202.07z"/>
   <path id="_3" class="fil0" d="M6242.77 7236.61l0 1250.32 -308.16 0 0 -1250.32 308.16 0zm-335.95 -346.05c0,239.96 363.73,239.96 363.73,0 0,-239.96 -363.73,-239.96 -363.73,0z"/>
   <path id="_4" class="fil0" d="M7755.78 7974.17c47.99,-512.76 -212.17,-770.4 -628.95,-770.4 -404.14,0 -661.78,272.8 -661.78,651.68 0,399.1 255.11,664.32 684.52,664.32 189.44,0 404.14,-65.68 535.49,-202.08l-197.02 -194.49c-70.73,73.25 -219.76,116.19 -333.42,116.19 -217.23,0 -351.1,-111.14 -371.31,-265.22l972.47 0zm-967.42 -255.11c45.47,-161.66 181.87,-242.49 348.58,-242.49 176.81,0 303.1,80.83 323.31,242.49l-671.89 0z"/>
   <path id="_5" class="fil0" d="M8000.79 7241.66l0 654.21c0,386.46 217.23,611.27 515.29,611.27 174.28,0 293,-60.62 421.82,-186.92l20.21 166.71 275.32 0 0 -1245.27 -305.63 0 0 635.27c0,190.7 -128.82,349.83 -318.26,349.83 -197.02,0 -300.59,-143.97 -300.59,-333.42l0 -651.68 -308.16 0z"/>
   <polygon id="_6" class="fil0" points="9506.23,6721.33 9506.23,8486.93 9811.86,8486.93 9811.86,6721.33 "/>
   <polygon id="_7" class="fil0" points="9976.05,7284.6 10218.53,7284.6 10415.55,6716.27 10097.29,6716.27 "/>
   <path id="_8" class="fil0" d="M11577.47 7370.48c-143.98,-126.29 -290.48,-164.18 -484.98,-164.18 -227.33,0 -525.38,101.03 -525.38,388.99 0,282.9 280.37,368.78 515.28,386.46 176.81,10.1 247.54,45.47 247.54,131.35 0,90.93 -108.61,151.55 -224.81,149.02 -138.92,-2.52 -340.99,-75.77 -429.4,-174.28l-151.55 219.75c181.86,189.44 378.88,222.28 575.9,222.28 356.15,0 535.49,-189.44 535.49,-409.2 0,-330.89 -298.05,-383.93 -532.96,-399.09 -159.13,-10.1 -232.38,-55.57 -232.38,-136.4 0,-78.3 80.82,-123.77 227.33,-123.77 118.71,0 219.75,27.79 308.16,111.14l171.76 -202.07z"/>
   <path class="fil1" d="M8343.84 9302.04c-58.09,58.1 -145.23,89.67 -222.27,89.67 -218.49,0 -303.11,-152.81 -304.37,-299.31 -1.27,-147.77 90.93,-306.9 304.37,-306.9 77.04,0 155.34,26.52 213.43,83.36l111.14 -107.35c-90.93,-89.67 -204.59,-135.14 -324.57,-135.14 -319.53,0 -469.82,234.91 -468.55,466.03 1.26,229.85 140.18,455.92 468.55,455.92 127.55,0 245.01,-41.68 335.94,-131.35l-113.67 -114.93z"/>
   <path id="_1_0" class="fil1" d="M8819.97 8892.85c-198.28,0 -322.05,146.5 -322.05,324.58 0,179.33 121.24,324.57 323.31,324.57 202.07,0 324.58,-145.24 324.58,-324.57 0,-178.08 -127.56,-324.58 -325.84,-324.58zm1.26 140.19c103.56,0 169.24,90.93 169.24,184.39 0,94.72 -56.84,183.12 -169.24,183.12 -112.4,0 -169.23,-88.4 -169.23,-183.12 0,-93.46 58.09,-184.39 169.23,-184.39z"/>
   <path id="_2_1" class="fil1" d="M9456.49 9528.11l0 -478.65 183.13 0 0 -135.14 -183.13 0 0 -41.68c0,-75.77 40.42,-111.13 93.46,-111.13 31.57,0 61.89,11.36 94.72,32.83l56.83 -114.93c-50.51,-32.83 -107.35,-50.51 -161.65,-50.51 -125.03,0 -237.43,77.04 -237.43,243.74l0 41.68 -116.2 0 0 135.14 116.2 0 0 478.65 154.07 0z"/>
   <path id="_3_2" class="fil1" d="M9965.45 9528.11l0 -478.65 183.13 0 0 -135.14 -183.13 0 0 -41.68c0,-75.77 40.42,-111.13 93.46,-111.13 31.57,0 61.89,11.36 94.72,32.83l56.83 -114.93c-50.51,-32.83 -107.35,-50.51 -161.65,-50.51 -125.03,0 -237.43,77.04 -237.43,243.74l0 41.68 -116.2 0 0 135.14 116.2 0 0 478.65 154.07 0z"/>
   <path id="_4_3" class="fil1" d="M10887.4 9271.73c23.99,-256.37 -106.09,-385.19 -314.48,-385.19 -202.07,0 -330.89,136.39 -330.89,325.83 0,199.55 127.56,332.16 342.26,332.16 94.72,0 202.07,-32.84 267.74,-101.04l-98.51 -97.24c-35.36,36.62 -109.87,58.09 -166.7,58.09 -108.62,0 -175.55,-55.57 -185.66,-132.61l486.24 0zm-483.71 -127.55c22.73,-80.83 90.93,-121.25 174.28,-121.25 88.41,0 151.56,40.42 161.66,121.25l-335.94 0z"/>
   <path id="_5_4" class="fil1" d="M11623.69 9271.73c23.99,-256.37 -106.09,-385.19 -314.48,-385.19 -202.07,0 -330.89,136.39 -330.89,325.83 0,199.55 127.56,332.16 342.26,332.16 94.72,0 202.07,-32.84 267.74,-101.04l-98.51 -97.24c-35.36,36.62 -109.87,58.09 -166.7,58.09 -108.62,0 -175.55,-55.57 -185.66,-132.61l486.24 0zm-483.71 -127.55c22.73,-80.83 90.93,-121.25 174.28,-121.25 88.41,0 151.56,40.42 161.66,121.25l-335.94 0z"/>
   <path class="fil2" d="M8225.12 5830.46l-3868.3 0c-35.19,0 -53.04,41.94 -28.83,67.48 110.58,116.86 375.68,345.04 763.5,351.26 10.26,0.14 20.17,4.17 27.39,11.37l106.68 106.69c7.48,7.46 17.66,11.7 28.25,11.7l2074.4 0c10.57,0 20.69,-4.24 28.17,-11.7l106.68 -106.69c7.28,-7.2 17.14,-11.23 27.37,-11.37 387.85,-6.22 652.95,-234.4 763.6,-351.26 24.13,-25.54 6.28,-67.48 -28.91,-67.48z"/>
   <path class="fil2" d="M7954.6 5095.12c-80.82,139.77 -212.62,250.27 -353.18,326.54 -97.96,53.11 -204.24,91 -313.56,113.82 106.55,-186.3 166.01,-433.08 199.01,-658.81 75.33,-23.81 131.48,-67.59 171.83,-112.25 65.54,-72.55 170.44,-100.53 258.27,-57.54 0.6,0.34 1.2,0.6 1.78,0.94 155.45,77.45 106.16,265.61 35.85,387.3zm266.15 -293.45c-23.87,-175.2 -162.17,-294.12 -327.64,-335.46 -121.98,-30.42 -245.12,-26.39 -368.14,-12.37 2.17,-57.01 2.77,-102.72 2.85,-132.68 0,-22.09 -17.87,-39.67 -39.95,-39.67l-2393.79 0c-22.09,0 -39.96,17.58 -39.88,39.67 0.52,238.7 33.26,1473.27 651.72,1509.3l1170.08 0c119.99,-7.01 217.67,-59.45 297.57,-140.61 152.05,-11.17 299.54,-38.88 442.08,-98.88 166.39,-70.04 317.8,-174.6 434.92,-312.7 109.61,-129.25 193.8,-303.38 170.18,-476.6z"/>
   <path class="fil3" d="M7302.01 5573.52c212.31,-50.4 423.88,-159.14 573.31,-319.73 82.73,-88.89 153.22,-200.2 173.27,-321.7 19.91,-120.37 -34.78,-234.73 -156.74,-269.38 -64.7,-18.31 -133.67,-7.27 -192.21,24.73 -45.18,24.67 -80.82,63.69 -120.11,96.37 68.99,-68.06 126.73,-134.26 230.24,-143.26 124.13,-10.78 238.29,74.86 256.61,198.42 18.99,127.78 -47.28,259.21 -122.22,357.95 -79.23,104.43 -183.86,188.69 -297.55,253.1 -106.17,60.13 -224.03,103.51 -344.6,123.5z"/>
   <path class="fil3" d="M5170.79 6236.04c0,0 140.04,-1.12 350.01,-2.79 210.06,-0.58 490.1,-1.44 770.2,-2.31 280.04,0.87 560.06,1.73 770.14,2.31 210.05,1.67 350.06,2.79 350.06,2.79 0,0 -140.01,1.05 -350.06,2.7 -210.08,0.6 -490.1,1.46 -770.14,2.33 -280.1,-0.87 -560.14,-1.73 -770.2,-2.33 -209.97,-1.65 -350.01,-2.7 -350.01,-2.7z"/>
   <path class="fil3" d="M4399.61 5910.24c0,0 945.67,-2.52 1891.39,-5.03 945.66,2.51 1891.39,5.03 1891.39,5.03 0,0 -945.73,2.51 -1891.39,5.08 -945.72,-2.57 -1891.39,-5.08 -1891.39,-5.08z"/>
   <path class="fil3" d="M5548.59 5647.78c-154.24,-157.8 -217.4,-390.54 -267.27,-599.29 -45.3,-189.8 -72.22,-386.64 -82.4,-581.49 40.19,-1.91 80.48,-3.77 120.75,-5.68 16.28,404.04 51.39,817.01 228.92,1186.46z"/>
   <path class="fil4" d="M5846.27 2460.19c6.02,57.09 3.06,109.66 -15.41,164.43 -20.62,61.17 -38.41,115.48 -36.16,181.16 2.3,65.81 20.17,119.52 48.41,177.98 30.09,62.37 46.02,126.92 44.84,196.5 -2.12,128.18 -86.92,226.79 -92.86,353.46 -3.17,68.18 14.62,124.47 35.9,188.02 18.34,54.9 21.45,107.35 15.28,164.5 -21.56,-127.73 -109.79,-225.21 -116.54,-356.63 -3.69,-72.09 13.11,-135.06 41.03,-200.66 20.83,-49.08 32.66,-96.91 33.46,-150.29 0.92,-62.95 -14.55,-116.39 -38.62,-173.74 -26.79,-63.63 -39.43,-126.12 -35.27,-195.37 3.9,-64.42 22.24,-120.7 53.85,-176.93 31.55,-56.21 51.39,-108.74 62.09,-172.43z"/>
   <path class="fil4" d="M6328.65 2117.67c7.06,50.73 10.91,101.25 5.73,152.44 -7.27,71.97 -33.05,140.48 -39.54,212.58 -5.83,65 -2.51,131.15 6.81,195.64 9.78,67.53 35.71,126.98 56.49,191.27 35.19,108.61 41.94,228.39 24.46,341.22 -10.65,68.58 -38.22,130.75 -59.84,196.1 -21.51,64.76 -28.72,135.06 -30.24,202.99 -2.05,89.22 20.11,169.37 35.79,256.16 11.83,65.28 9.45,129.56 0.34,194.98 -11.07,-59.6 -23.1,-118.14 -45.39,-174.76 -23.48,-59.39 -53.44,-115.15 -69.05,-177.63 -36.43,-146.58 -16,-286.06 25.87,-428.33 30.3,-102.85 35.85,-223.42 14.29,-328.71 -14.29,-70.04 -42.73,-136.05 -53.19,-207.09 -10.5,-71.22 -8.4,-145.17 1.85,-216.41 11.12,-76.92 41.01,-144.44 71.64,-215.02 27.32,-62.96 41.6,-128.3 53.98,-195.43z"/>
   <path class="fil4" d="M6811 2460.19c6.02,57.09 3.04,109.66 -15.49,164.43 -20.64,61.17 -38.36,115.48 -36.11,181.16 2.25,65.81 20.1,119.52 48.36,177.98 30.14,62.37 46.02,126.92 44.9,196.5 -2.12,128.18 -86.98,226.79 -92.86,353.46 -3.17,68.18 14.62,124.47 35.84,188.02 18.32,54.9 21.43,107.35 15.36,164.5 -21.64,-127.73 -109.81,-225.21 -116.54,-356.63 -3.71,-72.09 13.03,-135.06 40.93,-200.66 20.85,-49.08 32.68,-96.91 33.46,-150.29 1,-62.95 -14.55,-116.39 -38.62,-173.74 -26.71,-63.63 -39.41,-126.12 -35.19,-195.37 3.92,-64.42 22.24,-120.7 53.77,-176.93 31.63,-56.21 51.41,-108.74 62.19,-172.43z"/>
  </g>
 </g>
</svg>
