<?xml version="1.0" encoding="UTF-8"?>
<!DOCTYPE svg PUBLIC "-//W3C//DTD SVG 1.1//EN" "http://www.w3.org/Graphics/SVG/1.1/DTD/svg11.dtd">
<!-- Creator: CorelDRAW 2021 (64-Bit) -->
<svg xmlns="http://www.w3.org/2000/svg" xml:space="preserve" width="42.3332mm" height="42.3332mm" version="1.1" style="shape-rendering:geometricPrecision; text-rendering:geometricPrecision; image-rendering:optimizeQuality; fill-rule:evenodd; clip-rule:evenodd"
viewBox="0 0 4233.32 4233.32"
 xmlns:xlink="http://www.w3.org/1999/xlink"
 xmlns:xodm="http://www.corel.com/coreldraw/odm/2003">
 <defs>
  <style type="text/css">
   <![CDATA[
    .fil1 {fill:#FEFEFE;fill-rule:nonzero}
    .fil0 {fill:#2C1901;fill-rule:nonzero}
    .fil2 {fill:#894200;fill-rule:nonzero}
   ]]>
  </style>
 </defs>
 <g id="Layer_x0020_1">
  <metadata id="CorelCorpID_0Corel-Layer"/>
  <g id="_2044940221968">
   <path class="fil0" d="M3827.4 3527.99l-3429.95 0c-31.21,0 -47.03,37.18 -25.57,59.83 98.05,103.61 333.1,305.94 676.98,311.46 9.1,0.11 17.89,3.69 24.29,10.07l94.59 94.61c6.63,6.61 15.66,10.37 25.05,10.37l1839.33 0c9.37,0 18.35,-3.76 24.98,-10.37l94.59 -94.61c6.45,-6.38 15.2,-9.96 24.27,-10.07 343.9,-5.52 578.96,-207.85 677.07,-311.46 21.4,-22.65 5.57,-59.83 -25.63,-59.83z"/>
   <path class="fil0" d="M3587.53 2875.97c-71.66,123.93 -188.53,221.91 -313.15,289.54 -86.86,47.09 -181.1,80.69 -278.04,100.92 94.48,-165.19 147.21,-384.01 176.47,-584.16 66.79,-21.11 116.58,-59.93 152.35,-99.52 58.12,-64.34 151.13,-89.14 229.01,-51.02 0.53,0.3 1.06,0.53 1.58,0.83 137.83,68.67 94.12,235.51 31.78,343.41zm235.99 -260.19c-21.16,-155.35 -143.79,-260.79 -290.51,-297.45 -108.16,-26.98 -217.34,-23.41 -326.43,-10.97 1.93,-50.55 2.47,-91.08 2.53,-117.65 0,-19.58 -15.84,-35.17 -35.42,-35.17l-2122.53 0c-19.59,0 -35.43,15.59 -35.36,35.17 0.46,211.66 29.49,1306.33 577.87,1338.28l1037.49 0c106.39,-6.22 193,-52.72 263.85,-124.68 134.82,-9.91 265.59,-34.48 391.98,-87.67 147.54,-62.11 281.79,-154.82 385.64,-277.27 97.18,-114.6 171.84,-269.01 150.89,-422.59z"/>
   <path class="fil1" d="M3008.9 3300.16c188.24,-44.69 375.84,-141.1 508.33,-283.5 73.36,-78.81 135.87,-177.51 153.64,-285.25 17.65,-106.72 -30.84,-208.13 -138.98,-238.85 -57.36,-16.24 -118.52,-6.45 -170.42,21.93 -40.07,21.88 -71.67,56.47 -106.51,85.45 61.18,-60.35 112.38,-119.05 204.16,-127.03 110.06,-9.55 211.28,66.38 227.52,175.93 16.84,113.31 -41.92,229.84 -108.37,317.4 -70.25,92.59 -163.02,167.3 -263.83,224.42 -94.14,53.31 -198.64,91.78 -305.54,109.5z"/>
   <path class="fil1" d="M1119.18 3887.61c0,0 124.16,-1 310.35,-2.48 186.25,-0.51 434.56,-1.28 682.92,-2.04 248.3,0.76 496.6,1.53 682.86,2.04 186.26,1.48 310.4,2.48 310.4,2.48 0,0 -124.14,0.93 -310.4,2.39 -186.26,0.53 -434.56,1.3 -682.86,2.06 -248.36,-0.76 -496.67,-1.53 -682.92,-2.06 -186.19,-1.46 -310.35,-2.39 -310.35,-2.39z"/>
   <path class="fil1" d="M435.38 3598.72c0,0 838.52,-2.23 1677.07,-4.45 838.5,2.22 1677.06,4.45 1677.06,4.45 0,0 -838.56,2.23 -1677.06,4.51 -838.55,-2.28 -1677.07,-4.51 -1677.07,-4.51z"/>
   <path class="fil1" d="M1454.16 3366.01c-136.76,-139.93 -192.76,-346.29 -236.98,-531.38 -40.17,-168.3 -64.04,-342.83 -73.06,-515.6 35.64,-1.7 71.36,-3.34 107.07,-5.04 14.43,358.26 45.56,724.43 202.97,1052.02z"/>
   <path class="fil2" d="M1718.12 539.63c5.33,50.62 2.71,97.23 -13.67,145.79 -18.29,54.24 -34.06,102.4 -32.07,160.63 2.05,58.35 17.89,105.98 42.93,157.81 26.68,55.31 40.81,112.54 39.76,174.23 -1.88,113.66 -77.07,201.1 -82.34,313.41 -2.81,60.46 12.97,110.37 31.84,166.72 16.26,48.67 19.01,95.19 13.55,145.86 -19.12,-113.26 -97.35,-199.69 -103.34,-316.22 -3.27,-63.92 11.62,-119.76 36.38,-177.92 18.46,-43.52 28.95,-85.93 29.67,-133.26 0.81,-55.82 -12.9,-103.2 -34.25,-154.05 -23.75,-56.42 -34.96,-111.83 -31.27,-173.24 3.46,-57.11 19.72,-107.02 47.75,-156.87 27.98,-49.84 45.56,-96.42 55.06,-152.89z"/>
   <path class="fil2" d="M2145.83 235.91c6.26,44.99 9.67,89.79 5.08,135.17 -6.45,63.82 -29.3,124.56 -35.06,188.5 -5.17,57.63 -2.22,116.28 6.04,173.46 8.68,59.88 31.67,112.6 50.09,169.6 31.2,96.3 37.18,202.51 21.69,302.55 -9.44,60.81 -33.9,115.93 -53.06,173.88 -19.07,57.42 -25.47,119.76 -26.82,179.99 -1.81,79.11 17.84,150.18 31.74,227.13 10.49,57.88 8.38,114.89 0.3,172.89 -9.81,-52.85 -20.48,-104.75 -40.25,-154.95 -20.81,-52.67 -47.38,-102.11 -61.22,-157.51 -32.3,-129.97 -14.18,-253.65 22.94,-379.79 26.86,-91.2 31.78,-198.1 12.66,-291.46 -12.66,-62.11 -37.88,-120.64 -47.16,-183.63 -9.31,-63.15 -7.45,-128.71 1.65,-191.88 9.86,-68.21 36.35,-128.07 63.52,-190.66 24.22,-55.82 36.89,-113.76 47.86,-173.29z"/>
   <path class="fil2" d="M2573.52 539.63c5.34,50.62 2.69,97.23 -13.73,145.79 -18.3,54.24 -34.01,102.4 -32.02,160.63 2,58.35 17.82,105.98 42.88,157.81 26.73,55.31 40.81,112.54 39.81,174.23 -1.88,113.66 -77.12,201.1 -82.34,313.41 -2.81,60.46 12.97,110.37 31.79,166.72 16.24,48.67 19,95.19 13.61,145.86 -19.18,-113.26 -97.36,-199.69 -103.33,-316.22 -3.29,-63.92 11.55,-119.76 36.29,-177.92 18.48,-43.52 28.97,-85.93 29.67,-133.26 0.88,-55.82 -12.9,-103.2 -34.24,-154.05 -23.69,-56.42 -34.95,-111.83 -31.21,-173.24 3.48,-57.11 19.72,-107.02 47.68,-156.87 28.04,-49.84 45.58,-96.42 55.14,-152.89z"/>
  </g>
 </g>
</svg>
